<?xml version="1.0" encoding="utf-8"?>
<!-- Generator: Adobe Illustrator 25.2.1, SVG Export Plug-In . SVG Version: 6.00 Build 0)  -->
<svg version="1.1"
	 id="Layer_1" inkscape:version="0.92.4 (5da689c313, 2019-01-14)" sodipodi:docname="NBCUniversal_Peacock_Logo.svg" xmlns:cc="http://creativecommons.org/ns#" xmlns:dc="http://purl.org/dc/elements/1.1/" xmlns:inkscape="http://www.inkscape.org/namespaces/inkscape" xmlns:rdf="http://www.w3.org/1999/02/22-rdf-syntax-ns#" xmlns:sodipodi="http://sodipodi.sourceforge.net/DTD/sodipodi-0.dtd" xmlns:svg="http://www.w3.org/2000/svg"
	 xmlns="http://www.w3.org/2000/svg" xmlns:xlink="http://www.w3.org/1999/xlink" x="0px" y="0px" viewBox="0 0 1000 308"
	 style="enable-background:new 0 0 1000 308;" xml:space="preserve">
<style type="text/css">
	.st0{fill:#FFFFFF;}
	.st1{fill:#069DE0;}
	.st2{fill:#6E55DC;}
	.st3{fill:#05AC3F;}
	.st4{fill:#EF1541;}
	.st5{fill:#FF7112;}
	.st6{fill:#FCCC12;}
</style>
<path id="path28" inkscape:connector-curvature="0" class="st0" d="M64.3,95.1C28.8,95.1,0,124,0,159.4V308h30.5v-82.5l11.2,11.8
	l44.8-17.6c25.5-10,42.1-33,42.1-60.3C128.5,124,99.7,95.1,64.3,95.1L64.3,95.1z M75.7,192.8l-45.2,17.6v-51
	c0-20.5,15.3-35.2,33.8-35.2s33.8,14.9,33.8,35.2C98.1,172.3,91.8,186.4,75.7,192.8L75.7,192.8z M602,95.1
	c-35.4,0-64.3,28.8-64.3,64.3s28.8,64.3,64.3,64.3s64.3-28.8,64.3-64.3S637.4,95.1,602,95.1z M602,194.7
	c-19.5,0-33.8-15.5-33.8-35.2s14.7-35.2,33.8-35.2c19.5,0,33.8,15.5,33.8,35.2S621.5,194.7,602,194.7z M741.1,124.2
	c13.3,0,24,7.3,29.6,18l23.8-18.2c-11.6-17.2-31.1-28.6-53.5-28.6c-35.5,0-64.3,28.8-64.3,64.3s28.8,64.3,64.3,64.3
	c22.2,0,41.9-11.4,53.5-28.6L770.7,177c-5.6,10.8-16.4,18-29.6,18c-19.5,0-33.8-15.5-33.8-35.2S722,124.2,741.1,124.2z M481.1,124.2
	c13.3,0,24.1,7.3,29.6,18l23.8-18.2c-11.6-17.2-31.1-28.6-53.5-28.6c-35.4,0-64.3,28.8-64.3,64.3s28.8,64.3,64.3,64.3
	c22.2,0,41.9-11.4,53.5-28.6L510.8,177c-5.6,10.8-16.4,18-29.6,18c-19.5,0-33.8-15.5-33.8-35.2S461.9,124.2,481.1,124.2z
	 M374.6,110.5c-10.4-10.8-24-15.3-38.4-15.3c-29.9,0-60.1,27.2-60.1,64.3s30.3,64.3,60.1,64.3c14.3,0,28-4.6,38.4-15.3v11.6h30.5
	V99.1h-30.5V110.5z M340.8,194.7c-19.5,0-34.2-15.5-34.2-35.2s15.1-35.2,34.2-35.2c19.5,0,33.8,15.5,33.8,35.2
	S360.3,194.7,340.8,194.7z M879.4,155.1h-13.7l52.9-56.2h-39.2l-42.7,46V33h-30.5v187h30.5v-34.4l16.8-17.8l35.9,52.2h36.9
	L879.4,155.1z M202.7,95.1c-35.4,0-64.3,28.8-64.3,64.3s28.8,64.3,64.3,64.3c21.1,0,41-10.2,52.4-25.9l-24.5-17
	c-2.9,4.8-12.2,13.9-28,13.9c-14.5,0-26.3-8.7-31.3-21.3h92.7c1-4.6,1.5-9.1,1.5-13.9C265.8,124,238.2,95.1,202.7,95.1z
	 M171.6,145.5c5-12.6,16.8-21.3,31.1-21.3c14.5,0,25.5,8.7,30.1,21.3H171.6z"/>
<path id="path30" inkscape:connector-curvature="0" class="st1" d="M981.6,201.7c-10.2,0-18.5,8.3-18.5,18.5
	c0,10.2,8.3,18.4,18.5,18.4c10.2,0,18.4-8.3,18.4-18.4C1000,210,991.7,201.7,981.6,201.7z"/>
<path id="path32" inkscape:connector-curvature="0" class="st2" d="M981.6,151.3c-10.2,0-18.5,8.3-18.5,18.5
	c0,10.2,8.3,18.4,18.5,18.4c10.2,0,18.4-8.3,18.4-18.4C999.8,159.4,991.7,151.3,981.6,151.3z"/>
<path id="path34" inkscape:connector-curvature="0" class="st3" d="M981.6,252.1c-10.2,0-18.5,8.3-18.5,18.5
	c0,10.2,8.3,18.4,18.5,18.4c10.2,0,18.4-8.3,18.4-18.4C1000,260.4,991.7,252.1,981.6,252.1z"/>
<path id="path36" inkscape:connector-curvature="0" class="st4" d="M981.6,100.7c-10.2,0-18.5,8.3-18.5,18.5
	c0,10.2,8.3,18.4,18.5,18.4c10.2,0,18.4-8.3,18.4-18.4C999.8,109,991.7,100.7,981.6,100.7z"/>
<path id="path38" inkscape:connector-curvature="0" class="st5" d="M981.6,50.4c-10.2,0-18.5,8.3-18.5,18.5
	c0,10.2,8.3,18.4,18.5,18.4c10.2,0,18.4-8.3,18.4-18.4C999.8,58.7,991.7,50.4,981.6,50.4L981.6,50.4z"/>
<path id="path40" inkscape:connector-curvature="0" class="st6" d="M981.6,0c-10.2,0-18.5,8.3-18.5,18.5c0,10.2,8.3,18.4,18.5,18.4
	c10.2,0,18.4-8.3,18.4-18.4C999.8,8.3,991.7,0,981.6,0z"/>
</svg>
