<?xml version="1.0" encoding="utf-8"?>
<!-- Generator: Adobe Illustrator 27.3.1, SVG Export Plug-In . SVG Version: 6.00 Build 0)  -->
<svg version="1.1" id="Layer_1" xmlns="http://www.w3.org/2000/svg" xmlns:xlink="http://www.w3.org/1999/xlink" x="0px" y="0px"
	 viewBox="0 0 1311 795" style="enable-background:new 0 0 1311 795;" xml:space="preserve">
<style type="text/css">
	.st0{fill:#FFFFFF;}
	.st1{fill:#6E55DC;}
	.st2{fill:#EF1541;}
	.st3{fill:#FF7112;}
	.st4{fill:#FCCC12;}
	.st5{fill:#069DE0;}
	.st6{fill:#05AC3F;}
</style>
<g>
	<path class="st0" d="M584.3,795.4L584.3,795.4l-413.9,0c-36.6,0-79.5-14.5-107-36.2C22.3,726.8,1.5,683.6,0,627.1
		c-0.6-23.6,4.8-48.9,14.9-69.3c10.1-20.5,22.7-42.5,54.7-67.3c21.9-16.9,47.2-27.7,74.1-31.8c-16.9-17.9-29.2-38.5-36.7-61.7
		c-11.6-35.8-12.1-92.9,21.3-145.7c12.1-19,30.3-36.8,50.2-48.8c26-15.7,56.4-24,87.8-24c27,0,53.7,6.3,77.2,17.9
		c-4-23.4-3-47.5,3.1-71.2c12.6-49.3,44.7-87.6,92.8-110.7l0.9-0.4C460.2,5.2,484.5,0,507.3,0c64.4,0,119.4,30.9,148.5,82
		C684.4,32.2,741,0,803.6,0c21.4,0,45.8,5.5,66.9,15.1l0.9,0.4c48.2,23.3,79.1,60.2,91.8,109.8c6.6,25.8,8.1,48.5,4.2,71
		c23.5-11.6,50.1-17.8,77-17.8c31.4,0,61.8,8.3,87.8,24c19.8,12,38.1,29.7,50.2,48.8c33.4,52.8,32.9,109.9,21.3,145.7
		c-7.5,23.1-19.7,43.7-36.6,61.6c27.4,4,53.1,14.8,75.3,31.9c33.1,25.6,44.6,49,53.1,66.1l0.6,1.2c10.1,20.4,15.5,45.7,14.9,69.3
		c-1.5,56.4-22.2,99.7-63.4,132.1c-27.4,21.6-70.4,36.2-107,36.2l-415,0l0,0H584.3z"/>
	<g>
		<path class="st1" d="M921.4,136c-7.9-31-26.9-61.4-68.7-81.6c-14.7-6.7-33.1-11.2-49.1-11.2c-51.4,0-99.9,29-117.4,75.3
			c-7,18.4-9.9,36.9-8.4,56.5H731c22.1,0,35.5,11.4,35.5,19.1c-55.9,21.8-78.2,51.4-75,74.7L741,620.6l174.6-402.1
			C927.4,191.6,929.8,169,921.4,136z"/>
		<path class="st2" d="M625.5,118.5c-18.3-46.1-63.6-75.3-118.3-75.3c-15.9,0-34.4,3.6-49.1,10.3c-41.9,20.2-61.8,51.5-69.7,82.5
			c-8.4,32.9-3,61.3,6.7,83.5l175.1,401.1L633,183.5C636.2,161.7,633.6,139,625.5,118.5z"/>
		<path class="st3" d="M382.5,295.6c-8.9-20.2-24.4-38.3-42.3-51c-39.7-28.1-96.6-30.8-139.3-5.1c-13.6,8.2-27.4,21.3-36,34.9
			c-23.9,37.8-25.8,81.4-16.7,109.3c9.6,29.7,28.5,50.5,52.1,66.3l354.4,237.5L382.5,295.6z"/>
		<path class="st4" d="M239.7,522c-11.8-7.9-37.1-21.7-70.5-21.9c-28.1-0.2-53.1,9.2-73.1,24.6c-25.8,20-34.8,36.8-42.4,52.2
			c-7.1,14.3-10.9,32.9-10.5,49c1.2,44.8,16.5,75.4,46.9,99.3c18.6,14.7,51.8,26.9,80.2,26.9l413,0L239.7,522z"/>
		<path class="st5" d="M1145.8,274.4c-8.6-13.6-22.3-26.7-36-34.9c-42.7-25.7-99.6-23.1-139.3,5.1c-18,12.7-33.5,30.8-42.3,51
			L756,687.6l354.4-237.5c23.6-15.8,42.5-36.6,52.1-66.3C1171.6,355.8,1169.7,312.3,1145.8,274.4z"/>
		<path class="st6" d="M1257.3,577c-7.6-15.4-15.5-32.3-41.4-52.2c-20-15.4-44.6-24.6-72.6-24.6c-35.1,0-60.7,14-72.5,21.9
			L726.6,752.2l414,0c28.4,0,61.7-12.2,80.2-26.9c30.4-24,45.8-54.5,46.9-99.3C1268.2,609.9,1264.4,591.2,1257.3,577z"/>
	</g>
</g>
</svg>
