<?xml version="1.0" encoding="utf-8"?>
<!-- Generator: Adobe Illustrator 25.2.1, SVG Export Plug-In . SVG Version: 6.00 Build 0)  -->
<svg version="1.1"
	 id="svg4180" inkscape:version="0.92.0 r15299" sodipodi:docname="youtube tv.svg" xmlns:cc="http://creativecommons.org/ns#" xmlns:dc="http://purl.org/dc/elements/1.1/" xmlns:inkscape="http://www.inkscape.org/namespaces/inkscape" xmlns:rdf="http://www.w3.org/1999/02/22-rdf-syntax-ns#" xmlns:sodipodi="http://sodipodi.sourceforge.net/DTD/sodipodi-0.dtd" xmlns:svg="http://www.w3.org/2000/svg"
	 xmlns="http://www.w3.org/2000/svg" xmlns:xlink="http://www.w3.org/1999/xlink" x="0px" y="0px" viewBox="0 0 464.4 87"
	 style="enable-background:new 0 0 464.4 87;" xml:space="preserve">
<style type="text/css">
	.st0{fill:#FFFFFF;}
	.st1{fill:#FF0000;}
</style>
<sodipodi:namedview  bordercolor="#666666" borderopacity="1.0" fit-margin-bottom="0" fit-margin-left="0" fit-margin-right="0" fit-margin-top="0" id="base" inkscape:current-layer="layer1" inkscape:cx="231.2" inkscape:cy="42.499988" inkscape:document-units="mm" inkscape:pageopacity="0.0" inkscape:pageshadow="2" inkscape:window-height="744" inkscape:window-maximized="1" inkscape:window-width="1280" inkscape:window-x="-4" inkscape:window-y="-4" inkscape:zoom="1.9398789" pagecolor="#ffffff" showgrid="false" units="px">
	</sodipodi:namedview>
<g id="layer1" transform="translate(232.0169,-326.80343)" inkscape:groupmode="layer" inkscape:label="Layer 1">
	<g id="g4290" transform="translate(0.26458419,-0.26457413)">
		<path id="path4255" inkscape:connector-curvature="0" class="st0" d="M188.6,343.8h-11.9v63.3H165v-63.3h-11.9v-9.7h35.5V343.8z
			 M191.2,334.1h12.5l3.9,32.8c1.1,9.4,2.1,17.5,3.3,28.6h0.5c1.1-11.1,2.2-19,3.3-28.6l4-32.8h12.4l-12,72.9h-15.8L191.2,334.1z"/>
		<path id="path4257" inkscape:connector-curvature="0" class="st1" d="M-112.4,341.4c-1.4-5.3-5.5-9.3-10.7-10.8
			c-9.5-2.5-47.5-2.5-47.5-2.5s-38,0-47.5,2.5c-5.2,1.4-9.3,5.5-10.7,10.8c-2.5,9.5-2.5,29.2-2.5,29.2s0,19.8,2.5,29.2
			c1.5,5.3,5.5,9.4,10.8,10.8c9.4,2.5,47.4,2.5,47.4,2.5s38,0,47.5-2.5c5.2-1.4,9.3-5.5,10.8-10.7c2.5-9.5,2.5-29.2,2.5-29.2
			S-109.9,350.9-112.4,341.4z"/>
		<path id="path4259" inkscape:connector-curvature="0" class="st0" d="M-182.7,388.8l31.6-18.2l-31.6-18.2V388.8z"/>
		<path id="path4261" inkscape:connector-curvature="0" class="st0" d="M-55,405.5c-2.6-1.8-4.4-4.5-5.1-7.6
			c-1.1-4.5-1.6-9-1.5-13.6v-7.7c-0.1-4.7,0.5-9.3,1.8-13.8c0.9-3.1,2.8-5.8,5.4-7.6c2.9-1.7,6.3-2.5,9.7-2.4c3.9,0,7.1,0.8,9.5,2.4
			c2.5,1.9,4.4,4.5,5.2,7.6c1.2,4.5,1.8,9.1,1.6,13.8v7.7c0.1,4.6-0.4,9.2-1.6,13.7c-0.8,3.1-2.6,5.7-5.2,7.6
			c-2.4,1.6-5.7,2.4-9.8,2.4C-49.2,407.9-52.6,407.1-55,405.5L-55,405.5z M-41.5,397.1c0.7-1.7,1-4.6,1-8.5v-16.5
			c0.1-2.8-0.2-5.7-1-8.4c-0.4-1.6-1.9-2.7-3.5-2.7c-1.6,0-3,1.1-3.4,2.7c-0.8,2.7-1.1,5.6-1,8.4v16.6c0,3.9,0.3,6.8,1,8.5
			c0.4,1.6,1.8,2.7,3.5,2.6C-43.3,399.8-41.9,398.7-41.5,397.1z M129.6,384.4v2.7c0,2.6,0.1,5.1,0.3,7.7c0.1,1.3,0.5,2.6,1.3,3.7
			c0.8,0.8,1.9,1.3,3,1.2c1.5,0.1,3-0.7,3.7-2.1c0.7-1.4,1-3.7,1.1-7l10.3,0.7c0.1,0.6,0.1,1.3,0.1,1.9c0,4.9-1.3,8.6-4,11
			c-2.7,2.4-6.5,3.6-11.4,3.6c-5.9,0-10-1.9-12.4-5.6s-3.6-9.4-3.6-17.2v-9.3c0-8,1.2-13.8,3.7-17.5c2.5-3.7,6.7-5.5,12.6-5.5
			c4.1,0,7.3,0.8,9.5,2.3c2.3,1.7,4,4.2,4.7,7c1,4.3,1.5,8.8,1.3,13.2v9.1L129.6,384.4z M131.1,362c-0.7,1.1-1.2,2.4-1.2,3.7
			c-0.2,2.6-0.3,5.2-0.3,7.8v3.8h8.8v-3.8c0-2.6-0.1-5.2-0.4-7.8c-0.1-1.3-0.5-2.6-1.3-3.7c-0.7-0.8-1.8-1.2-2.8-1.1
			C132.8,360.8,131.8,361.2,131.1,362L131.1,362z M-84.2,383.4l-13.6-49.3h11.9l4.8,22.3c1.2,5.5,2.1,10.2,2.7,14.1h0.4
			c0.4-2.8,1.3-7.4,2.7-14l5-22.4h11.9l-13.8,49.3v23.7h-11.9v-23.7H-84.2z M10.3,353.8v53.3H0.9l-1-6.5h-0.3
			c-2.5,4.9-6.4,7.4-11.5,7.4c-3.5,0-6.1-1.2-7.8-3.5c-1.7-2.3-2.5-5.9-2.5-10.9v-39.8h12v39.1c-0.1,1.7,0.2,3.5,0.8,5.1
			c0.5,1,1.5,1.6,2.6,1.5c1.1,0,2.1-0.4,3-1c0.9-0.6,1.7-1.4,2.1-2.4v-42.3L10.3,353.8z M71.8,353.8v53.3h-9.4l-1-6.5h-0.3
			c-2.5,4.9-6.4,7.4-11.5,7.4c-3.5,0-6.1-1.2-7.8-3.5c-1.7-2.3-2.5-5.9-2.5-10.9v-39.8h12v39.1c-0.1,1.7,0.2,3.5,0.8,5.1
			c0.5,1,1.5,1.6,2.6,1.5c1.1,0,2.1-0.4,3-1c0.9-0.6,1.7-1.4,2.1-2.4v-42.3L71.8,353.8z"/>
		<path id="path4263" inkscape:connector-curvature="0" class="st0" d="M42.9,343.8H31v63.3H19.3v-63.3H7.4v-9.7h35.5V343.8z
			 M111.5,362.3c-0.7-3.3-1.9-5.8-3.5-7.3c-1.9-1.6-4.3-2.4-6.7-2.3c-2.2,0-4.3,0.6-6.2,1.9c-1.9,1.2-3.4,2.9-4.4,4.9h-0.1v-28.1
			H79.1v75.7H89l1.2-5h0.3c0.9,1.8,2.4,3.3,4.2,4.3c1.9,1,4,1.6,6.2,1.6c3.8,0.1,7.4-2.1,9-5.6c1.9-3.7,2.9-9.6,2.9-17.5v-8.4
			C112.7,371.6,112.3,366.9,111.5,362.3L111.5,362.3z M100.5,384c0,3-0.1,6.1-0.5,9.1c-0.1,1.7-0.7,3.3-1.6,4.7
			c-0.7,0.9-1.8,1.4-3,1.4c-1,0-1.9-0.2-2.7-0.7c-0.8-0.5-1.5-1.2-2-2.1v-30.2c0.4-1.4,1.1-2.6,2.1-3.6c0.8-0.9,2-1.4,3.2-1.4
			c1.1,0,2.2,0.5,2.8,1.4c0.8,1.5,1.3,3.1,1.4,4.8c0.3,3.2,0.4,6.4,0.4,9.6L100.5,384z"/>
	</g>
</g>
</svg>
